<svg xmlns="http://www.w3.org/2000/svg" viewBox="0 0 100 100">
  <path d="M50 90 C30 80 10 65 10 35 C10 15 28 8 50 8 C72 8 90 15 90 35 C90 65 70 80 50 90 Z" fill="#1E8449"/>
  <path d="M50 84 C32 74 16 60 16 35 C16 18 32 14 50 14 C68 14 84 18 84 35 C84 60 68 74 50 84 Z" fill="#27AE60"/>
  <path d="M50 16 C50 16 48 50 50 84 C52 50 50 16 50 16 Z" fill="#A9DFBF"/>
  <path d="M50 40 C50 40 35 52 30 58 C35 52 50 40 50 40 Z" fill="#A9DFBF"/>
  <path d="M50 52 C50 52 65 62 70 66 C65 62 50 52 50 52 Z" fill="#A9DFBF"/>
</svg>
