<svg width="24" height="24" viewBox="0 0 24 24" fill="none" xmlns="http://www.w3.org/2000/svg">
<rect x="8" y="4" width="12" height="12" fill="black"/>
<path d="M4 6V20H18V22H4C2.9 22 2 21.1 2 20V6H4Z" fill="#B8B7B7"/>
<path fill-rule="evenodd" clip-rule="evenodd" d="M20 2C21.1 2 22 2.9 22 4V16C22 17.1 21.1 18 20 18H8C6.9 18 6 17.1 6 16V4C6 2.9 6.9 2 8 2H20ZM8 4V16H20V4H8Z" fill="#B8B7B7"/>
<path d="M12.1901 12.2H15.8201L16.6201 14.5H18.1801L14.8001 5.5H13.2001L9.82007 14.5H11.3801L12.1901 12.2ZM13.9601 7.17H14.0401L15.3501 10.89H12.6601L13.9601 7.17Z" fill="#D9D9D9"/>
</svg>
