<svg width="47" height="46" viewBox="0 0 47 46" fill="none" xmlns="http://www.w3.org/2000/svg">
<path d="M26.9255 41.7418C26.7801 41.8883 26.3148 42.2692 25.617 42.6209C24.9191 42.9725 22.4184 42.7674 21.2552 42.6209C20.5283 42.6209 19.0744 42.0934 19.0744 39.9835C19.0744 37.8736 19.0744 30.7527 19.0744 27.6758C19.0744 26.3571 18.202 24.5989 15.585 24.5989C12.9681 24.5989 12.5318 26.3571 12.5318 27.6758V39.9835C12.5318 41.3022 12.0957 42.6209 10.3511 42.6209C10.3511 42.6209 5.98936 42.6209 5.11702 42.6209C3.80851 42.6209 2.5 42.0934 2.5 39.9835C2.5 37.8736 2.5 16.8333 2.5 7.01648C2.5 4.81868 4.24468 3.5 5.98936 3.5C7.73404 3.5 8.75177 3.5 9.04255 3.5C10.7872 3.5 12.5318 5.25824 12.5318 7.01648C12.5318 8.77473 12.5318 13.9029 12.5318 16.2473C13.1135 15.9542 14.9745 15.3681 17.766 15.3681C23 15.3681 26.4892 19.7637 26.9255 22.8407C27.2745 25.3022 27.3617 26.7967 27.3617 27.2363V33.8297C27.3617 38.6648 29.5426 43.5 35.2128 43.5C38.7021 43.5 40.4468 43.5 40.4468 43.5C42.6277 43.5 43.5 42.4451 43.5 39.9835C43.5 36.9066 42.6277 36.467 41.3191 36.467C41.3191 36.467 35.6489 36.467 35.6489 33.8297C35.6489 31.7198 35.6489 26.2106 35.6489 23.7198H40.4468C42.1915 23.7198 43.5 22.7527 43.5 20.6429C43.5 18.533 43.5 18.8846 43.5 18.8846C43.5 18.8846 43.5 15.8077 41.3191 15.8077C39.5745 15.8077 36.8121 15.8077 35.6489 15.8077V12.2912C35.6489 10.9725 34.6894 9.21429 32.5957 9.21429C29.9787 9.21429 27.3617 12.7308 27.3617 12.7308" stroke="#EEFA94" stroke-width="5" stroke-linecap="round"/>
<path d="M29.9255 38.7418C29.7801 38.8883 29.3148 39.2692 28.617 39.6209C27.9191 39.9725 25.4184 39.7674 24.2552 39.6209C23.5283 39.6209 22.0744 39.0934 22.0744 36.9835C22.0744 34.8736 22.0744 27.7527 22.0744 24.6758C22.0744 23.3571 21.202 21.5989 18.585 21.5989C15.9681 21.5989 15.5318 23.3571 15.5318 24.6758V36.9835C15.5318 38.3022 15.0957 39.6209 13.3511 39.6209C13.3511 39.6209 8.98936 39.6209 8.11702 39.6209C6.80851 39.6209 5.5 39.0934 5.5 36.9835C5.5 34.8736 5.5 13.8333 5.5 4.01648C5.5 1.81868 7.24468 0.5 8.98936 0.5C10.734 0.5 11.7518 0.5 12.0426 0.5C13.7872 0.5 15.5318 2.25824 15.5318 4.01648C15.5318 5.77473 15.5318 10.9029 15.5318 13.2473C16.1135 12.9542 17.9745 12.3681 20.766 12.3681C26 12.3681 29.4892 16.7637 29.9255 19.8407C30.2745 22.3022 30.3617 23.7967 30.3617 24.2363V30.8297C30.3617 35.6648 32.5426 40.5 38.2128 40.5C41.7021 40.5 43.4468 40.5 43.4468 40.5C45.6277 40.5 46.5 39.4451 46.5 36.9835C46.5 33.9066 45.6277 33.467 44.3191 33.467C44.3191 33.467 38.6489 33.467 38.6489 30.8297C38.6489 28.7198 38.6489 23.2106 38.6489 20.7198H43.4468C45.1915 20.7198 46.5 19.7527 46.5 17.6429C46.5 15.533 46.5 15.8846 46.5 15.8846C46.5 15.8846 46.5 12.8077 44.3191 12.8077C42.5745 12.8077 39.8121 12.8077 38.6489 12.8077V9.29121C38.6489 7.97253 37.6894 6.21429 35.5957 6.21429C32.9787 6.21429 30.3617 9.73077 30.3617 9.73077" stroke="black" stroke-linecap="round"/>
</svg>
